<svg width="31" height="25" viewBox="0 0 31 25" fill="none" xmlns="http://www.w3.org/2000/svg">
<g clip-path="url(#clip0)">
<path d="M10.1908 19.3325C10.221 18.8099 10.2489 18.3081 10.2814 17.8086C10.3651 16.5124 10.4534 15.2138 10.5324 13.9176C10.5354 13.8149 10.5601 13.7139 10.605 13.6214C10.6498 13.5289 10.7138 13.447 10.7926 13.381C14.1759 10.3441 17.5546 7.30326 20.9286 4.25858C21.0471 4.15172 21.2167 3.91244 21.1749 3.84275C21.0494 3.62671 20.8031 3.70337 20.6149 3.78932C20.3656 3.90428 20.1249 4.03702 19.8946 4.18655C15.808 6.76044 11.7229 9.33743 7.63937 11.9175C7.56854 11.9699 7.48576 12.0038 7.39849 12.0159C7.31122 12.0281 7.22227 12.0182 7.1398 11.9872C5.35055 11.4158 3.55901 10.8559 1.76977 10.2844C1.5891 10.2299 1.41638 10.1518 1.25618 10.0521C0.858831 9.79428 0.79146 9.411 1.15628 9.10668C1.44279 8.86089 1.76681 8.66247 2.116 8.51896C3.31967 8.0288 4.53726 7.5735 5.75023 7.10658L18.6026 2.1609C20.3795 1.47484 22.161 0.79111 23.9471 0.109696C24.7836 -0.208555 25.4343 0.195643 25.5156 1.09232C25.5371 1.31902 25.5245 1.54763 25.4784 1.77062C24.7751 5.10181 24.0656 8.43145 23.3499 11.7595C22.8108 14.2916 22.2733 16.8237 21.7373 19.3558C21.4631 20.6404 20.5754 20.9819 19.5135 20.192L14.4013 16.4241L14.0342 16.1593L12.4076 17.7413C11.9638 18.1687 11.5223 18.6008 11.0715 19.0212C10.958 19.1367 10.8198 19.2247 10.6672 19.2786C10.5145 19.3326 10.3516 19.351 10.1908 19.3325Z" fill="#9E9E9E"/>
</g>
<ellipse cx="22.8618" cy="18.6147" rx="4.6538" ry="4.6538" fill="#333132"/>
<path d="M22.8754 10.5801C26.6517 10.5801 29.5104 13.5472 29.5104 16.9418C29.5104 20.8788 26.1597 23.3226 22.8621 23.3226C21.7718 23.3226 20.5618 23.0419 19.5912 22.4931C19.2521 22.2953 18.9663 22.1485 18.6006 22.2634L17.2576 22.6463C16.9186 22.7483 16.6128 22.4931 16.7125 22.1485L17.1579 20.7192C17.2311 20.5214 17.2178 20.3109 17.1114 20.145C16.5396 19.1368 16.2139 18.0329 16.2139 16.9609C16.2139 13.6046 19.0128 10.5801 22.8754 10.5801ZM25.9137 16.1506C25.4417 16.1506 25.0627 16.5143 25.0627 16.9673C25.0627 17.414 25.4417 17.784 25.9137 17.784C26.3857 17.784 26.7647 17.414 26.7647 16.9673C26.7647 16.5143 26.3857 16.1506 25.9137 16.1506ZM22.8489 16.1506C22.3835 16.1442 21.9979 16.5143 21.9979 16.9609C21.9979 17.414 22.3768 17.7777 22.8489 17.784C23.3209 17.784 23.6998 17.414 23.6998 16.9673C23.6998 16.5143 23.3209 16.1506 22.8489 16.1506ZM19.784 16.1506C19.312 16.1506 18.933 16.5143 18.933 16.9673C18.933 17.414 19.3186 17.784 19.784 17.784C20.256 17.7777 20.635 17.414 20.635 16.9673C20.635 16.5143 20.256 16.1506 19.784 16.1506Z" fill="#C4C4C4"/>
<defs>
<clipPath id="clip0">
<rect width="24.5986" height="20.6097" fill="white" transform="translate(0.922852)"/>
</clipPath>
</defs>
</svg>
