<svg width="49" height="49" viewBox="0 0 49 49" fill="none" xmlns="http://www.w3.org/2000/svg">
<path fill-rule="evenodd" clip-rule="evenodd" d="M24.2839 29.3514L24.5098 29.3515L25.0149 29.3532C28.8761 29.3787 37.6999 29.7687 37.6999 35.7494C37.6999 41.6909 29.1837 42.0784 25.0751 42.1037L23.5529 42.1037C19.6915 42.0783 10.8659 41.6887 10.8659 35.7154C10.8659 29.7665 19.6915 29.3785 23.5529 29.3532L24.0581 29.3515C24.1365 29.3514 24.2118 29.3514 24.2839 29.3514ZM24.2839 32.3514C19.5319 32.3514 13.8659 32.9354 13.8659 35.7154C13.8659 38.4325 19.1938 39.0678 23.8496 39.1038L24.2839 39.1054C29.0359 39.1054 34.6999 38.5234 34.6999 35.7494C34.6999 32.9414 29.0359 32.3514 24.2839 32.3514ZM40.1911 28.5398C45.0371 29.2658 46.0551 31.5418 46.0551 33.3238C46.0551 34.4118 45.6271 36.3978 42.7671 37.4878C42.5911 37.5538 42.4111 37.5858 42.2331 37.5858C41.6291 37.5858 41.0591 37.2178 40.8311 36.6198C40.5351 35.8458 40.9251 34.9778 41.6991 34.6838C43.0551 34.1678 43.0551 33.5978 43.0551 33.3238C43.0551 32.4478 41.9411 31.8358 39.7451 31.5078C38.9271 31.3838 38.3611 30.6218 38.4831 29.7998C38.6051 28.9798 39.3651 28.4338 40.1911 28.5398ZM10.0827 29.7998C10.2047 30.6218 9.63874 31.3838 8.82074 31.5078C6.62474 31.8358 5.51074 32.4478 5.51074 33.3238C5.51074 33.5978 5.51074 34.1658 6.86874 34.6838C7.64274 34.9778 8.03274 35.8458 7.73674 36.6198C7.50874 37.2178 6.93874 37.5858 6.33474 37.5858C6.15674 37.5858 5.97674 37.5538 5.80074 37.4878C2.93874 36.3958 2.51074 34.4098 2.51074 33.3238C2.51074 31.5438 3.52874 29.2658 8.37674 28.5398C9.20274 28.4358 9.95874 28.9798 10.0827 29.7998ZM24.2839 8.52344C29.3239 8.52344 33.4219 12.6234 33.4219 17.6614C33.4219 22.6994 29.3239 26.7994 24.2839 26.7994H24.2299C21.7899 26.7914 19.5039 25.8354 17.7919 24.1074C16.0759 22.3814 15.1379 20.0894 15.1479 17.6554C15.1479 12.6234 19.2459 8.52344 24.2839 8.52344ZM24.2839 11.5234C20.8999 11.5234 18.1479 14.2774 18.1479 17.6614C18.1419 19.3014 18.7699 20.8354 19.9199 21.9934C21.0699 23.1514 22.6019 23.7934 24.2339 23.7994L24.2839 25.2994V23.7994C27.6679 23.7994 30.4219 21.0474 30.4219 17.6614C30.4219 14.2774 27.6679 11.5234 24.2839 11.5234ZM36.6619 10.4824C40.1779 11.0604 42.7319 14.0684 42.7319 17.6344C42.7239 21.2244 40.0419 24.3044 36.4919 24.8024C36.4219 24.8124 36.3519 24.8164 36.2839 24.8164C35.5479 24.8164 34.9059 24.2744 34.7999 23.5244C34.6859 22.7024 35.256 21.9444 36.0779 21.8304C38.158 21.5384 39.728 19.7344 39.7319 17.6304C39.7319 15.5444 38.2359 13.7804 36.1739 13.4424C35.3579 13.3084 34.8039 12.5364 34.9379 11.7184C35.0739 10.9004 35.84 10.3524 36.6619 10.4824ZM13.6299 11.7184C13.7639 12.5364 13.2099 13.3084 12.3939 13.4424C10.3319 13.7804 8.83594 15.5444 8.83594 17.6344C8.83994 19.7344 10.4099 21.5404 12.4879 21.8304C13.3099 21.9444 13.8799 22.7024 13.7659 23.5244C13.6599 24.2744 13.0179 24.8164 12.2819 24.8164C12.2139 24.8164 12.1439 24.8124 12.0739 24.8024C8.52394 24.3044 5.84394 21.2244 5.83594 17.6384C5.83594 14.0684 8.38994 11.0604 11.9059 10.4824C12.7479 10.3504 13.4939 10.9044 13.6299 11.7184Z" fill="#988EFB"/>
</svg>
