<svg width="23" height="25" viewBox="0 0 23 25" fill="none" xmlns="http://www.w3.org/2000/svg">
<path d="M7.71823 24.9994C6.90779 24.7642 6.05148 24.6214 5.29105 24.2749C3.78758 23.6029 2.54492 22.4514 1.75437 20.9976C0.963824 19.5439 0.669222 17.8685 0.915928 16.2295C1.12731 14.5409 1.89684 12.9734 3.10033 11.7797C4.30383 10.586 5.87113 9.83576 7.54946 9.64998C8.25573 9.56387 8.98076 9.63736 9.69536 9.63736V14.0475C8.95784 14.0853 8.26199 14.0244 7.61197 14.1714C5.94526 14.5452 4.99107 16.0741 5.1119 18.002C5.19316 19.4489 6.61192 20.8539 8.16405 21.0261C9.71617 21.1983 11.3954 20.1419 11.8413 18.6341C11.9299 18.2631 11.9664 17.8813 11.9496 17.5C11.9815 12.0623 12.0065 6.62446 12.0246 1.18668C12.0246 0.934675 12.0246 0.684782 12.0246 0.388672H15.9601C16.1205 1.98473 16.5851 3.46737 17.7727 4.63711C18.9602 5.80685 20.4498 6.23945 22.0457 6.48726V10.6874C20.9894 10.4774 19.9623 10.3619 18.9977 10.0574C18.0331 9.75287 17.1226 9.22996 16.156 8.78265C16.156 9.52607 16.156 10.2863 16.156 11.0465C16.1455 13.1823 16.1455 15.3181 16.1205 17.4517C16.0913 19.2923 15.4043 21.0605 14.1857 22.4316C12.9672 23.8027 11.2988 24.6846 9.48702 24.9154C9.40094 24.9352 9.31715 24.9641 9.23702 25.0015L7.71823 24.9994Z" fill="#9E9E9E"/>
</svg>
