<svg width="28" height="25" viewBox="0 0 28 25" fill="none" xmlns="http://www.w3.org/2000/svg">
<g clip-path="url(#clip0)">
<path d="M9.26799 19.3325C9.2982 18.8099 9.32606 18.3081 9.35859 17.8086C9.44224 16.5124 9.53056 15.2138 9.60956 13.9176C9.61253 13.8149 9.63726 13.7139 9.68212 13.6214C9.72698 13.5289 9.79093 13.447 9.86979 13.381C13.2531 10.3441 16.6318 7.30326 20.0058 4.25858C20.1243 4.15172 20.2939 3.91244 20.252 3.84275C20.1266 3.62671 19.8803 3.70337 19.6921 3.78932C19.4427 3.90428 19.202 4.03702 18.9717 4.18655C14.8851 6.76044 10.8 9.33743 6.71652 11.9175C6.64569 11.9699 6.56291 12.0038 6.47564 12.0159C6.38837 12.0281 6.29942 12.0182 6.21695 11.9872C4.4277 11.4158 2.63616 10.8559 0.846916 10.2844C0.666251 10.2299 0.49353 10.1518 0.333332 10.0521C-0.0640202 9.79428 -0.131392 9.411 0.233429 9.10668C0.519941 8.86089 0.843956 8.66247 1.19314 8.51896C2.39682 8.0288 3.61441 7.5735 4.82738 7.10658L17.6798 2.1609C19.4566 1.47484 21.2381 0.79111 23.0243 0.109696C23.8608 -0.208555 24.5114 0.195643 24.5928 1.09232C24.6142 1.31902 24.6017 1.54763 24.5555 1.77062C23.8522 5.10181 23.1427 8.43145 22.4271 11.7595C21.888 14.2916 21.3504 16.8237 20.8144 19.3558C20.5402 20.6404 19.6526 20.9819 18.5906 20.192L13.4785 16.4241L13.1113 16.1593L11.4847 17.7413C11.0409 18.1687 10.5994 18.6008 10.1486 19.0212C10.0352 19.1367 9.89691 19.2247 9.7443 19.2786C9.59169 19.3326 9.4288 19.351 9.26799 19.3325Z" fill="#9E9E9E"/>
</g>
<circle cx="21.6069" cy="18.2827" r="6.31587" fill="#C4C4C4"/>
<g clip-path="url(#clip1)">
<path d="M23.5114 20.4073C23.2247 20.4067 22.9494 20.521 22.7459 20.7249L20.04 18.9009C20.0965 18.7674 20.126 18.624 20.1269 18.4789C20.1264 18.3347 20.0979 18.1921 20.0428 18.0591C19.9878 17.9261 19.9073 17.8054 19.806 17.7038C19.7048 17.6022 19.5847 17.5217 19.4526 17.467C19.3206 17.4122 19.1791 17.3843 19.0364 17.3848C18.7482 17.385 18.4719 17.5007 18.2683 17.7066C18.0646 17.9124 17.9502 18.1914 17.9502 18.4824C17.9502 18.7733 18.0646 19.0524 18.2683 19.2582C18.4719 19.464 18.7482 19.5797 19.0364 19.58C19.3203 19.5798 19.593 19.4674 19.7958 19.2667L22.5052 21.0934C22.4516 21.2251 22.4242 21.3661 22.4244 21.5084C22.4246 21.7994 22.5392 22.0785 22.743 22.2843C22.9468 22.4901 23.2232 22.6058 23.5114 22.606C23.7996 22.6058 24.0758 22.49 24.2795 22.2842C24.4832 22.0784 24.5976 21.7994 24.5976 21.5084C24.5981 21.3641 24.5703 21.221 24.5159 21.0875C24.4616 20.954 24.3816 20.8326 24.2808 20.7303C24.1799 20.6281 24.06 20.5469 23.928 20.4915C23.7959 20.436 23.6544 20.4074 23.5114 20.4073Z" fill="#333132"/>
<path d="M20.9416 17.5697L22.7178 16.4712C22.819 16.5819 22.9418 16.6702 23.0785 16.7306C23.2152 16.791 23.3628 16.8222 23.512 16.8221C23.8001 16.8219 24.0764 16.7062 24.2801 16.5003C24.4837 16.2945 24.5982 16.0155 24.5982 15.7245C24.5982 15.4336 24.4837 15.1546 24.2801 14.9487C24.0764 14.7429 23.8001 14.6272 23.512 14.627C23.2246 14.6272 22.9491 14.7422 22.7454 14.9468C22.5417 15.1515 22.4265 15.4292 22.4249 15.7193C22.4249 15.8471 22.4473 15.9739 22.491 16.0939L20.7148 17.1924L20.9416 17.5697Z" fill="#333132"/>
</g>
<defs>
<clipPath id="clip0">
<rect width="24.5986" height="20.6097" fill="white"/>
</clipPath>
<clipPath id="clip1">
<rect width="6.64828" height="7.97794" fill="white" transform="translate(17.9502 14.625)"/>
</clipPath>
</defs>
</svg>
