<svg width="22" height="25" viewBox="0 0 22 25" fill="none" xmlns="http://www.w3.org/2000/svg">
<path d="M16.0291 0.369141C19.7712 0.369141 21.8549 2.52552 21.8549 6.22044V18.7347C21.8549 22.4902 19.7712 24.5981 16.0291 24.5981H5.8759C2.19309 24.5981 0.0488281 22.4902 0.0488281 18.7347V6.22044C0.0488281 2.52552 2.19309 0.369141 5.8759 0.369141H16.0291ZM6.20299 17.0144C5.83955 16.9781 5.48823 17.1477 5.2944 17.4627C5.10057 17.7655 5.10057 18.1653 5.2944 18.4803C5.48823 18.7832 5.83955 18.9649 6.20299 18.9164H15.7007C16.1841 18.868 16.5488 18.4549 16.5488 17.9715C16.5488 17.4748 16.1841 17.0629 15.7007 17.0144H6.20299ZM15.7007 11.489H6.20299C5.68085 11.489 5.25806 11.9142 5.25806 12.4352C5.25806 12.9561 5.68085 13.3801 6.20299 13.3801H15.7007C16.2217 13.3801 16.6457 12.9561 16.6457 12.4352C16.6457 11.9142 16.2217 11.489 15.7007 11.489ZM9.82401 6.00238H6.20299V6.01449C5.68085 6.01449 5.25806 6.4385 5.25806 6.95942C5.25806 7.48035 5.68085 7.90435 6.20299 7.90435H9.82401C10.3461 7.90435 10.7702 7.48035 10.7702 6.9461C10.7702 6.42638 10.3461 6.00238 9.82401 6.00238Z" fill="#9E9E9E"/>
</svg>
