<svg width="48" height="48" viewBox="0 0 48 48" fill="none" xmlns="http://www.w3.org/2000/svg">
<path fill-rule="evenodd" clip-rule="evenodd" d="M20.295 10.4069C21.161 11.0869 21.659 12.1009 21.659 13.1889C21.659 21.9589 21.955 24.3189 23.165 25.2169C23.959 25.8029 25.047 25.7969 28.713 25.6949C30.417 25.6449 32.599 25.5809 35.457 25.5809C36.597 25.5809 37.671 26.0689 38.399 26.9189C39.075 27.7089 39.371 28.7409 39.215 29.7569C37.879 38.4069 30.519 44.6889 21.715 44.6889C11.947 44.6889 4.00098 36.7429 4.00098 26.9769C4.00098 19.2329 9.85698 11.4889 17.055 9.71688C18.179 9.44288 19.387 9.69888 20.295 10.4069ZM17.965 12.6069C17.901 12.6069 17.837 12.6149 17.773 12.6309C11.833 14.0929 7.00098 20.5289 7.00098 26.9769C7.00098 35.0889 13.601 41.6889 21.715 41.6889C29.029 41.6889 35.141 36.4789 36.249 29.2989C36.257 29.2389 36.285 29.0649 36.121 28.8709C35.965 28.6889 35.717 28.5809 35.457 28.5809C32.635 28.5809 30.481 28.6449 28.799 28.6929C24.727 28.8149 23.043 28.8609 21.379 27.6269C18.9996 25.8642 18.6868 22.9008 18.6609 14.585L18.659 13.1889C18.659 13.0209 18.587 12.8809 18.443 12.7689C18.309 12.6629 18.139 12.6069 17.965 12.6069ZM40.1018 7.46748C43.6178 10.9815 45.8498 15.5995 45.7858 19.2335C45.7618 20.6515 44.7318 21.8355 43.3398 22.0455C40.6238 22.4555 37.4438 22.5795 34.6298 22.5795C32.0098 22.5795 29.7038 22.4735 28.3778 22.3975C26.7098 22.2995 25.3818 20.9695 25.2858 19.3015C25.1298 16.6575 24.7918 9.93948 25.0318 4.74348C25.0978 3.23348 26.3178 2.03148 27.8098 2.00548C32.0838 1.88148 36.4938 3.86548 40.1018 7.46748ZM28.0658 5.00348H28.0218C27.8018 10.0415 28.1278 16.5495 28.2798 19.1275C28.2878 19.2815 28.3998 19.3935 28.5518 19.4015C30.6078 19.5195 37.6918 19.8475 42.7858 19.0975C42.7978 16.2895 40.8758 12.4815 37.9818 9.58948C35.0138 6.62548 31.5018 5.00348 28.0658 5.00348Z" fill="#2979FF"/>
</svg>
