<svg width="49" height="49" viewBox="0 0 49 49" fill="none" xmlns="http://www.w3.org/2000/svg">
<path fill-rule="evenodd" clip-rule="evenodd" d="M28.9082 4.94727C28.9941 4.94727 29.0783 4.9545 29.1602 4.96839L29.434 4.97007C29.842 4.97007 30.232 5.13607 30.516 5.43007L40.646 15.9841C40.914 16.2621 41.0642 16.6361 41.0642 17.0221V35.3541C41.1 40.3721 37.192 44.4721 32.166 44.6761L16.128 44.6781H15.91C11.0101 44.5673 7.08029 40.6045 6.96056 35.7524L6.95996 13.9281C7.07596 8.96607 11.174 4.97007 16.1 4.97007L28.6561 4.96839C28.738 4.9545 28.8223 4.94727 28.9082 4.94727ZM27.408 7.96927L16.104 7.97007C12.79 7.97007 10.038 10.6541 9.95996 13.9641V35.3541C9.88596 38.7801 12.586 41.6021 15.978 41.6781H32.106C35.444 41.5401 38.088 38.7661 38.0641 35.3661L38.064 18.9133L34.0442 18.9153C30.3842 18.9053 27.4082 15.9213 27.4082 12.2653L27.408 7.96927ZM28.5346 30.1635C29.3626 30.1635 30.0346 30.8355 30.0346 31.6635C30.0346 32.4915 29.3626 33.1635 28.5346 33.1635H17.7346C16.9066 33.1635 16.2346 32.4915 16.2346 31.6635C16.2346 30.8355 16.9066 30.1635 17.7346 30.1635H28.5346ZM24.4448 22.6595C25.2728 22.6595 25.9448 23.3315 25.9448 24.1595C25.9448 24.9875 25.2728 25.6595 24.4448 25.6595H17.7328C16.9048 25.6595 16.2328 24.9875 16.2328 24.1595C16.2328 23.3315 16.9048 22.6595 17.7328 22.6595H24.4448ZM30.408 9.65127L30.4082 12.2653C30.4082 14.2733 32.0422 15.9093 34.0482 15.9153L36.42 15.9133L30.408 9.65127Z" fill="#FB014E"/>
</svg>
