<svg width="29" height="25" viewBox="0 0 29 25" fill="none" xmlns="http://www.w3.org/2000/svg">
<path d="M21.2731 0.398438C23.1059 0.398438 24.8691 1.12284 26.1662 2.42266C27.4646 3.71975 28.1904 5.46925 28.1904 7.30076V18.0984C28.1904 21.9118 25.0878 25.0008 21.2731 25.0008H7.77048C3.95575 25.0008 0.854492 21.9118 0.854492 18.0984V7.30076C0.854492 3.4874 3.94208 0.398438 7.77048 0.398438H21.2731ZM22.8189 7.50578C22.5319 7.49074 22.2585 7.58779 22.0521 7.77914L15.8893 12.6996C15.0965 13.357 13.9607 13.357 13.1557 12.6996L7.00508 7.77914C6.58 7.46477 5.99228 7.50578 5.63828 7.87481C5.26924 8.24385 5.22824 8.83157 5.54124 9.24161L5.72029 9.41929L11.9392 14.2714C12.7046 14.8728 13.6327 15.2008 14.6045 15.2008C15.5735 15.2008 16.518 14.8728 17.282 14.2714L23.4476 9.33729L23.557 9.22794C23.8836 8.83157 23.8836 8.25752 23.5419 7.86115C23.352 7.65749 23.0909 7.53311 22.8189 7.50578Z" fill="#9E9E9E"/>
</svg>
